<svg xmlns="http://www.w3.org/2000/svg" width="26" height="23" fill="none"><script xmlns=""/>
<path fill-rule="evenodd" clip-rule="evenodd" d="M20.2177 23H5.85073C2.67042 23 0.0683594 20.2818 0.0683594 16.9596V6.0404C0.0683594 2.71818 2.67042 0 5.85073 0H20.2399C23.4202 0 26.0223 2.71818 26.0223 6.0404V16.9596C26.0001 20.2818 23.398 23 20.2177 23ZM7.69629 6.08687H9.8313V17.0061H7.69629V6.08687ZM19.2607 14.1485V8.94444C19.2607 8.45656 19.2162 8.13131 18.9049 7.66667C18.6602 7.29495 18.1042 6.73737 17.7484 6.45859C17.3036 6.13333 16.9922 6.08687 16.5252 6.08687H11.2988V17.0061H16.5252C16.9922 17.0061 17.3036 16.9596 17.7484 16.6343C18.1042 16.3788 18.638 15.798 18.9049 15.4263C19.2162 14.9616 19.2607 14.6364 19.2607 14.1485ZM16.8588 8.52626C17.0367 8.73535 17.1479 8.87475 17.1479 8.89798V14.2182C17.1479 14.2414 17.0589 14.3808 16.8588 14.5899C16.6586 14.7758 16.5252 14.8919 16.5029 14.8919H13.4339V8.22424H16.5029C16.5252 8.22424 16.6586 8.31717 16.8588 8.52626Z" fill="white"/>
<script xmlns=""/></svg>