<svg xmlns="http://www.w3.org/2000/svg" viewBox="0 -2.5 140 140" width="120" height="120"><path d="M24.843 29H7.13C3.21 29 0 25.573 0 21.384V7.616C0 3.427 3.208 0 7.13 0h17.74C28.793 0 32 3.427 32 7.616v13.768C31.973 25.573 28.764 29 24.843 29z" fill="#000"/><path d="M9.234 7.675h2.692v13.767H9.234V7.675zm14.582 3.603v6.561c0 .616-.056 1.026-.45 1.612-.336.468-1.009 1.2-1.457 1.523-.561.41-.954.468-1.543.468h-6.59V7.675h6.59c.59 0 .982.058 1.543.468.448.352 1.15 1.055 1.458 1.524.392.586.449.996.449 1.61zm-2.664-.059c0-.029-.14-.205-.365-.468-.252-.264-.42-.381-.449-.381h-3.87v8.407h3.87c.028 0 .197-.147.45-.381.252-.264.364-.44.364-.469V11.22z" fill="#fff"/></svg>