<svg xmlns="http://www.w3.org/2000/svg" width="52" height="47" viewBox="0 0 52 47" style="fill: currentColor;">
	<path fill-rule="evenodd" clip-rule="evenodd" d="M1.33221 6.67377C0 9.28838 0 12.7111 0 19.5565V27.4435C0 34.2889 0 37.7116 1.33221 40.3262C2.50405 42.6261 4.3739 44.4959 6.67377 45.6678C9.28838 47 12.7111 47 19.5565 47H32.4435C39.2889 47 42.7116 47 45.3262 45.6678C47.6261 44.4959 49.4959 42.6261 50.6678 40.3262C52 37.7116 52 34.2889 52 27.4435V19.5565C52 12.7111 52 9.28838 50.6678 6.67377C49.4959 4.3739 47.6261 2.50405 45.3262 1.33221C42.7116 0 39.2889 0 32.4435 0H19.5565C12.7111 0 9.28838 0 6.67377 1.33221C4.3739 2.50405 2.50405 4.3739 1.33221 6.67377ZM14.8749 12.5V35H19.4874V12.5H14.8749ZM39.012 17C38.912 16.625 38.6995 16.2125 38.3745 15.7625C38.0995 15.3875 37.712 14.95 37.212 14.45C36.737 13.95 36.2995 13.5625 35.8995 13.2875C35.4495 12.9625 35.037 12.75 34.662 12.65C34.287 12.55 33.8245 12.5 33.2745 12.5H22.0245V35H33.2745C33.8245 35 34.287 34.95 34.662 34.85C35.037 34.75 35.4495 34.5375 35.8995 34.2125C36.2745 33.9625 36.712 33.5875 37.212 33.0875C37.712 32.5875 38.0995 32.1375 38.3745 31.7375C38.6995 31.2875 38.912 30.875 39.012 30.5C39.112 30.125 39.162 29.6625 39.162 29.1125V18.3875C39.162 17.8375 39.112 17.375 39.012 17ZM33.9495 17.525C34.3745 17.95 34.587 18.2 34.587 18.275V29.225C34.587 29.3 34.3745 29.55 33.9495 29.975C33.5245 30.4 33.2745 30.6125 33.1995 30.6125H26.5995V16.8875H33.1995C33.2745 16.8875 33.5245 17.1 33.9495 17.525Z" />
	<script xmlns="" />
</svg>
