<svg xmlns="http://www.w3.org/2000/svg" xmlns:xlink="http://www.w3.org/1999/xlink" width="36" height="36" viewBox="0 0 36 36">
    <defs>
        <circle id="a" cx="14" cy="14" r="14"/>
    </defs>
    <g fill="none" fill-rule="evenodd">
        <circle cx="18" cy="18" r="16" fill="#050305"/>
        <g transform="translate(4 4)">
            <mask id="b" fill="#fff">
                <use xlink:href="#a"/>
            </mask>
            <use fill="#FB08C5" xlink:href="#a"/>
            <ellipse cx="9.672" cy="9.671" fill="#FE60DC" mask="url(#b)" rx="10.123" ry="6.623" transform="rotate(-45 9.672 9.67)"/>
            <path fill="#FE60DC" d="M25.222 16.918c1.173 1.174.269 3.985-2.025 6.279s-5.105 3.23-6.279 2.025c-1.41-1.411-.764-4.513 1.497-6.807 2.262-2.293 5.277-3.09 6.807-1.497z" mask="url(#b)"/>
        </g>
        <path fill="#050305" d="M14.23 26.64l.06 1.68L27 19.31l-5.82-3.04 1.11-8.59L9 17.1l6.55 3.14z"/>
        <path fill="#FECCFF" d="M21.31 8.38l-.98 7.6 5.14 2.69-11.24 7.97 1.44-6.99L12 17.89l-2.46-1.18z"/>
        <g fill="#FCFCFC">
            <path d="M20.33 15.98l5.14 2.69-5.36-1.02zM21.31 8.38l-8.74 9.78-3.03-1.45zM10 8.56a.91.91 0 0 1 .74 0c.47.84.93 1.66 2.14 1.42.23 0 .46.23.5.48a.55.55 0 0 1-.35.61 1.52 1.52 0 0 0-1.07 1.73c0 .41-.12.71-.53.78a.62.62 0 0 1-.72-.51c-.11-.4-.43-.55-.7-.8-.47-.43-1-.05-1.49-.29-.3-.51-.2-.82.38-1.1a1.39 1.39 0 0 0 .82-1.58 2.19 2.19 0 0 1 0-.51l.28-.23z"/>
        </g>
    </g>
</svg>
